<?xml version="1.0" encoding="utf-8"?><svg xmlns="http://www.w3.org/2000/svg" width="22.72" height="32" viewBox="0 0 102.768 144.752"><defs><filter id="ea" x="0" y="0" width="102.768" height="144.752" filterUnits="userSpaceOnUse"><feOffset dy="6"/><feGaussianBlur stdDeviation="4.5" result="blur"/><feFlood flood-opacity=".102"/><feComposite operator="in" in2="blur"/><feComposite in="SourceGraphic"/></filter></defs><g filter="url(#ea)"><g data-name="num-five" opacity=".48"><path d="M51.384 124.754c-5.763 0-10.988-.845-15.53-2.511-4.53-1.662-8.51-4.189-11.832-7.51-2.57-2.571-4.634-5.503-6.133-8.714-1.504-3.223-2.456-6.047-2.83-8.396-.359-2.26-.699-5.099-1.01-8.441h25.9c.99 8.163 4.836 12.3 11.435 12.3 3.184 0 5.842-1.042 7.898-3.098 1.207-1.208 2.12-3.01 2.714-5.356.581-2.298.876-5.195.876-8.61 0-6.205-.972-10.638-2.89-13.175-1.949-2.58-4.842-3.889-8.598-3.889-1.914 0-3.604.288-5.024.856-1.438.575-2.608 1.396-3.478 2.44-.844 1.013-1.447 1.905-1.792 2.652a55.96 55.96 0 00-1.032 2.416H16.132V8.002h70.176v23.272h-46.74v19.562l.807-.627c1.909-1.485 4.17-2.615 6.721-3.359 2.566-.748 5.499-1.128 8.716-1.128 4.73 0 9.004.68 12.704 2.02 3.685 1.335 6.906 3.365 9.574 6.034 4.293 4.292 7.175 8.91 8.566 13.725 1.401 4.852 2.112 10.543 2.112 16.917 0 7.236-.763 13.14-2.27 17.55-1.498 4.39-4.328 8.74-8.41 12.93-3.267 3.267-7.165 5.752-11.584 7.386-4.434 1.639-9.52 2.47-15.12 2.47z"/><path d="M51.384 124.254c5.54 0 10.569-.82 14.946-2.439 4.35-1.608 8.187-4.054 11.402-7.268 4.029-4.135 6.819-8.422 8.294-12.74 1.488-4.358 2.242-10.208 2.242-17.389 0-6.327-.704-11.972-2.093-16.778-1.367-4.733-4.206-9.279-8.438-13.51-2.616-2.617-5.776-4.608-9.392-5.918-3.644-1.32-7.861-1.99-12.533-1.99-3.17 0-6.055.373-8.576 1.108-2.49.726-4.695 1.828-6.554 3.273l-1.614 1.256V30.774h46.74V8.502H16.632v66.716h23.09c.34-.831.646-1.544.914-2.125.368-.798.977-1.702 1.862-2.763.923-1.109 2.16-1.978 3.677-2.584 1.479-.592 3.231-.892 5.209-.892 3.921 0 6.949 1.375 8.998 4.087 2.012 2.663 2.99 7.071 2.99 13.477 0 7.12-1.222 11.805-3.737 14.32-2.153 2.152-4.93 3.244-8.251 3.244-6.774 0-10.766-4.137-11.874-12.3H14.598c.296 3.095.617 5.736.956 7.863.366 2.302 1.304 5.082 2.788 8.262 1.474 3.159 3.504 6.043 6.033 8.572 3.27 3.27 7.19 5.758 11.65 7.394 4.487 1.647 9.655 2.481 15.359 2.481m0 1c-11.699 0-20.937-3.39-27.716-10.168-2.624-2.624-4.701-5.576-6.232-8.856-1.53-3.28-2.487-6.123-2.87-8.528-.383-2.405-.738-5.412-1.066-9.02h26.896c.875 8.2 4.537 12.3 10.988 12.3 3.061 0 5.576-.984 7.544-2.952 2.296-2.296 3.444-6.833 3.444-13.612 0-6.123-.93-10.414-2.788-12.874-1.859-2.46-4.592-3.69-8.2-3.69-1.859 0-3.471.273-4.838.82-1.367.547-2.46 1.312-3.28 2.296-.82.984-1.394 1.831-1.722 2.542-.328.71-.71 1.613-1.148 2.706H15.632V7.502h71.176v24.272h-46.74v18.04c3.936-3.061 9.184-4.592 15.744-4.592 9.621 0 17.165 2.733 22.632 8.2 4.373 4.373 7.27 9.02 8.692 13.94 1.421 4.92 2.132 10.605 2.132 17.056 0 7.325-.765 13.23-2.296 17.712-1.53 4.483-4.373 8.856-8.528 13.12-6.67 6.67-15.69 10.004-27.06 10.004z"/></g></g></svg>